<svg width="54" height="43" viewBox="0 0 54 43" fill="none" xmlns="http://www.w3.org/2000/svg">
<path fill-rule="evenodd" clip-rule="evenodd" d="M11.0668 0C8.02662 0 5.77702 2.6723 5.87776 5.57033C5.97444 8.35456 5.84883 11.9605 4.94491 14.9012C4.03777 17.8501 2.50466 19.7189 0 19.9587V22.6668C2.50466 22.9071 4.03777 24.7749 4.94481 27.7243C5.84883 30.6649 5.97433 34.2709 5.87765 37.0551C5.77692 39.9528 8.02652 42.6255 11.0672 42.6255H42.2191C45.2593 42.6255 47.5085 39.9532 47.4077 37.0551C47.3111 34.2709 47.4367 30.6649 48.3406 27.7243C49.2477 24.7749 50.7771 22.9064 53.2819 22.6668V19.9587C50.7772 19.7184 49.2478 17.8506 48.3406 14.9012C47.4366 11.961 47.3111 8.35456 47.4077 5.57033C47.5085 2.67271 45.2593 0 42.2191 0H11.0664H11.0668ZM36.1233 26.2388C36.1233 30.2292 33.1594 32.6494 28.2407 32.6494H19.8678C19.6283 32.6494 19.3986 32.5538 19.2292 32.3837C19.0598 32.2136 18.9647 31.983 18.9647 31.7424V10.8832C18.9647 10.6426 19.0598 10.4119 19.2292 10.2419C19.3986 10.0718 19.6283 9.97623 19.8678 9.97623H28.1931C32.2944 9.97623 34.9861 12.2073 34.9861 15.6327C34.9861 18.0369 33.1753 20.1893 30.8685 20.5663V20.6917C34.0088 21.0377 36.1233 23.2219 36.1233 26.2388ZM27.3278 12.8512H22.5536V19.6234H26.5746C29.6831 19.6234 31.3971 18.3663 31.3971 16.1195C31.3967 14.0138 29.9232 12.8512 27.3278 12.8512ZM22.5536 22.3104V29.7735H27.5034C30.7399 29.7735 32.4542 28.4693 32.4542 26.0184C32.4542 23.5674 30.6918 22.31 27.2953 22.31H22.5536V22.3104Z" fill="#7952B3"/>
</svg>
