<svg width="22" height="22" viewBox="0 0 22 22" fill="none" xmlns="http://www.w3.org/2000/svg">
<mask id="mask0_57_552" style="mask-type:alpha" maskUnits="userSpaceOnUse" x="0" y="0" width="22" height="22">
<rect x="0.917114" y="0.824707" width="20.6114" height="20.8831" fill="#D9D9D9"/>
</mask>
<g mask="url(#mask0_57_552)">
<path d="M11.2228 14.3769C11.1083 14.3769 11.0009 14.3588 10.9007 14.3225C10.8005 14.2863 10.7075 14.2246 10.6216 14.1376L7.52989 11.0052C7.37244 10.8456 7.29371 10.6426 7.29371 10.3961C7.29371 10.1495 7.37244 9.9465 7.52989 9.78698C7.68733 9.62746 7.8913 9.54407 8.14179 9.53682C8.39227 9.52957 8.59624 9.6057 8.75369 9.76523L10.364 11.3967V5.1753C10.364 4.92877 10.4463 4.72211 10.6109 4.55534C10.7755 4.38856 10.9794 4.30518 11.2228 4.30518C11.4661 4.30518 11.6701 4.38856 11.8347 4.55534C11.9993 4.72211 12.0816 4.92877 12.0816 5.1753V11.3967L13.6918 9.76523C13.8493 9.6057 14.0533 9.52957 14.3037 9.53682C14.5542 9.54407 14.7582 9.62746 14.9156 9.78698C15.0731 9.9465 15.1518 10.1495 15.1518 10.3961C15.1518 10.6426 15.0731 10.8456 14.9156 11.0052L11.8239 14.1376C11.738 14.2246 11.645 14.2863 11.5448 14.3225C11.4446 14.3588 11.3373 14.3769 11.2228 14.3769ZM6.06991 18.2272C5.59757 18.2272 5.19321 18.0568 4.85684 17.716C4.52048 17.3752 4.35229 16.9655 4.35229 16.487V14.7467C4.35229 14.5002 4.4346 14.2935 4.5992 14.1267C4.76381 13.96 4.96777 13.8766 5.2111 13.8766C5.45443 13.8766 5.6584 13.96 5.823 14.1267C5.98761 14.2935 6.06991 14.5002 6.06991 14.7467V16.487H16.3756V14.7467C16.3756 14.5002 16.4579 14.2935 16.6225 14.1267C16.7871 13.96 16.9911 13.8766 17.2344 13.8766C17.4777 13.8766 17.6817 13.96 17.8463 14.1267C18.0109 14.2935 18.0932 14.5002 18.0932 14.7467V16.487C18.0932 16.9655 17.925 17.3752 17.5887 17.716C17.2523 18.0568 16.848 18.2272 16.3756 18.2272H6.06991Z" fill="#F5F5F5"/>
</g>
</svg>
