<svg width="51" height="49" viewBox="0 0 51 49" fill="none" xmlns="http://www.w3.org/2000/svg">
<path d="M25.3404 0C11.3471 0 0 11.2093 0 25.037C0 36.0992 7.26079 45.484 17.3294 48.7947C18.5958 49.0264 19.0608 48.2516 19.0608 47.5902C19.0608 46.9933 19.0372 45.0208 19.0264 42.9288C11.9765 44.4433 10.4889 39.9748 10.4889 39.9748C9.33624 37.0808 7.67536 36.3114 7.67536 36.3114C5.37633 34.7574 7.84866 34.7893 7.84866 34.7893C10.3933 34.966 11.7332 37.3694 11.7332 37.3694C13.9933 41.1971 17.6613 40.0904 19.1073 39.4509C19.3347 37.8325 19.9915 36.7281 20.7161 36.1029C15.0878 35.4696 9.17088 33.3228 9.17088 23.7294C9.17088 20.9961 10.1608 18.7625 11.7819 17.0092C11.5188 16.3785 10.6515 13.8321 12.0274 10.3834C12.0274 10.3834 14.1553 9.71044 18.9978 12.9498C21.019 12.3949 23.1869 12.1168 25.3404 12.1074C27.494 12.1168 29.6634 12.3949 31.6886 12.9498C36.5253 9.71044 38.6503 10.3834 38.6503 10.3834C40.0295 13.8321 39.1618 16.3785 38.8987 17.0092C40.5234 18.7625 41.5066 20.9959 41.5066 23.7294C41.5066 33.3456 35.5785 35.4632 29.9359 36.0829C30.8447 36.8599 31.6546 38.3836 31.6546 40.7193C31.6546 44.0693 31.6252 46.7655 31.6252 47.5902C31.6252 48.2565 32.0813 49.0372 33.366 48.7914C43.429 45.477 50.6806 36.0954 50.6806 25.037C50.6806 11.2093 39.3351 0 25.3404 0Z" fill="#121212"/>
<path d="M9.49078 35.6658C9.43514 35.7901 9.23679 35.8274 9.05653 35.7422C8.8727 35.6605 8.76935 35.4908 8.82898 35.3659C8.88363 35.2379 9.08197 35.2022 9.26541 35.2882C9.44964 35.3697 9.55458 35.5409 9.49078 35.6658ZM10.7373 36.7646C10.6165 36.8754 10.3801 36.8239 10.2198 36.649C10.054 36.4744 10.023 36.2411 10.1456 36.1286C10.2702 36.018 10.4994 36.0697 10.6655 36.2444C10.8313 36.421 10.8635 36.6529 10.7371 36.7648L10.7373 36.7646ZM11.5925 38.1706C11.4371 38.2772 11.1831 38.1772 11.0263 37.9546C10.871 37.7321 10.871 37.465 11.0296 37.358C11.187 37.251 11.4371 37.3472 11.596 37.5681C11.7511 37.7945 11.7511 38.0616 11.5923 38.1707L11.5925 38.1706ZM13.0385 39.799C12.8996 39.9502 12.6039 39.9097 12.3872 39.7032C12.1658 39.5013 12.104 39.2148 12.2433 39.0634C12.3839 38.9118 12.6814 38.9544 12.8996 39.1592C13.1196 39.3607 13.1868 39.6493 13.0387 39.799H13.0385ZM14.9075 40.3488C14.8465 40.5448 14.5615 40.6339 14.2745 40.5506C13.9879 40.4648 13.8003 40.2351 13.8581 40.037C13.9177 39.8396 14.2039 39.7467 14.4931 39.8359C14.7793 39.9213 14.9673 40.1493 14.9077 40.3488H14.9075ZM17.0348 40.5819C17.0419 40.7884 16.7985 40.9597 16.4972 40.9634C16.1941 40.9699 15.9491 40.8028 15.9459 40.5997C15.9459 40.3912 16.1838 40.2215 16.4867 40.2166C16.788 40.2107 17.0348 40.3767 17.0348 40.5819ZM19.1244 40.5027C19.1605 40.7042 18.951 40.9112 18.6519 40.9661C18.3578 41.0192 18.0855 40.8949 18.048 40.6952C18.0114 40.4886 18.2248 40.2818 18.5184 40.2282C18.8181 40.1768 19.0862 40.2979 19.1244 40.5027Z" fill="#121212"/>
</svg>
