<svg width="36" height="36" viewBox="0 0 36 36" fill="none" xmlns="http://www.w3.org/2000/svg">
<g clip-path="url(#clip0_57_561)">
<path fill-rule="evenodd" clip-rule="evenodd" d="M17.5342 0.180298C7.83823 0.180298 0 8.18039 0 18.0776C0 25.9889 5.02223 32.6857 11.9894 35.056C12.8605 35.2341 13.1795 34.6709 13.1795 34.197C13.1795 33.7821 13.1508 32.3599 13.1508 30.8781C8.27323 31.945 7.25752 28.7446 7.25752 28.7446C6.47366 26.6704 5.31223 26.1373 5.31223 26.1373C3.71579 25.0409 5.42851 25.0409 5.42851 25.0409C7.19938 25.1595 8.12859 26.878 8.12859 26.878C9.69595 29.6039 12.2216 28.8337 13.2377 28.3595C13.3827 27.2039 13.8475 26.4039 14.341 25.9595C10.4507 25.5446 6.35773 24.0038 6.35773 17.1292C6.35773 15.1736 7.05402 13.5735 8.15731 12.3292C7.98323 11.8848 7.37345 10.0473 8.33174 7.58802C8.33174 7.58802 9.81224 7.11383 13.1505 9.42513C14.5797 9.03336 16.0536 8.83407 17.5342 8.83239C19.0147 8.83239 20.5239 9.04003 21.9176 9.42513C25.2561 7.11383 26.7366 7.58802 26.7366 7.58802C27.6949 10.0473 27.0848 11.8848 26.9107 12.3292C28.0431 13.5735 28.7106 15.1736 28.7106 17.1292C28.7106 24.0038 24.6176 25.5148 20.6983 25.9595C21.3372 26.5224 21.8885 27.589 21.8885 29.2781C21.8885 31.6781 21.8598 33.6043 21.8598 34.1967C21.8598 34.6709 22.1792 35.2341 23.0499 35.0563C30.0171 32.6854 35.0393 25.9889 35.0393 18.0776C35.068 8.18039 27.2011 0.180298 17.5342 0.180298Z" fill="#121212"/>
</g>
<defs>
<clipPath id="clip0_57_561">
<rect width="35.0394" height="35.5012" fill="white" transform="translate(0 0.180298)"/>
</clipPath>
</defs>
</svg>
