<svg width="54" height="54" viewBox="0 0 54 54" fill="none" xmlns="http://www.w3.org/2000/svg">
<path d="M53.2819 0H0V53.2819H53.2819V0Z" fill="#F7DF1E"/>
<path d="M35.7919 41.6266C36.8651 43.379 38.2614 44.6671 40.731 44.6671C42.8056 44.6671 44.1309 43.6302 44.1309 42.1975C44.1309 40.4807 42.7692 39.8726 40.4857 38.8738L39.234 38.3367C35.621 36.7975 33.2208 34.8692 33.2208 30.7927C33.2208 27.0376 36.0819 24.179 40.5534 24.179C43.7368 24.179 46.0254 25.2869 47.6746 28.1878L43.7757 30.6912C42.9172 29.1519 41.9912 28.5455 40.5534 28.5455C39.0869 28.5455 38.1574 29.4758 38.1574 30.6912C38.1574 32.1932 39.0877 32.8013 41.2359 33.7316L42.4876 34.2678C46.7417 36.0921 49.1436 37.9519 49.1436 42.1332C49.1436 46.6411 45.6025 49.1106 40.8469 49.1106C36.197 49.1106 33.1929 46.8948 31.723 43.9905L35.7919 41.6266ZM18.1048 42.0605C18.8914 43.456 19.6069 44.6358 21.3271 44.6358C22.9721 44.6358 24.0098 43.9922 24.0098 41.4896V24.4648H29.0166V41.5573C29.0166 46.7417 25.977 49.1013 21.5402 49.1013C17.5314 49.1013 15.2098 47.0267 14.0292 44.528L18.1048 42.0605Z" fill="black"/>
</svg>
