<svg width="36" height="36" viewBox="0 0 36 36" fill="none" xmlns="http://www.w3.org/2000/svg">
<g clip-path="url(#clip0_57_562)">
<path d="M32.5373 0.180298H2.67857C1.24825 0.180298 0.0916748 1.32438 0.0916748 2.73888V33.116C0.0916748 34.5305 1.24825 35.6815 2.67857 35.6815H32.5373C33.9676 35.6815 35.1311 34.5305 35.1311 33.1229V2.73888C35.1311 1.32438 33.9676 0.180298 32.5373 0.180298ZM10.4871 30.4326H5.28599V13.4863H10.4871V30.4326ZM7.88657 11.1773C6.21672 11.1773 4.86853 9.81138 4.86853 8.12646C4.86853 6.44154 6.21672 5.07558 7.88657 5.07558C9.54957 5.07558 10.8978 6.44154 10.8978 8.12646C10.8978 9.80445 9.54957 11.1773 7.88657 11.1773ZM29.9504 30.4326H24.7561V22.1952C24.7561 20.2329 24.7219 17.7021 22.0529 17.7021C19.3496 17.7021 18.939 19.8446 18.939 22.0565V30.4326H13.7516V13.4863H18.7337V15.8022H18.8022C19.4934 14.4709 21.1906 13.0634 23.7159 13.0634C28.9786 13.0634 29.9504 16.5719 29.9504 21.1343V30.4326V30.4326Z" fill="#121212"/>
</g>
<defs>
<clipPath id="clip0_57_562">
<rect width="35.0394" height="35.5012" fill="white" transform="translate(0.0916748 0.180298)"/>
</clipPath>
</defs>
</svg>
