<svg width="16" height="24" viewBox="0 0 16 24" fill="none" xmlns="http://www.w3.org/2000/svg">
<path fill-rule="evenodd" clip-rule="evenodd" d="M4.00359 1.23575C6.48044 -0.222373 9.52489 -0.196887 11.9785 1.30251C14.408 2.83244 15.8845 5.56293 15.8708 8.50016C15.8142 11.4181 14.2309 14.161 12.2518 16.2814C11.1095 17.5107 9.83163 18.5978 8.44432 19.5203C8.30144 19.6041 8.14493 19.6601 7.98252 19.6857C7.82621 19.679 7.67398 19.6322 7.53957 19.5495C5.42156 18.1633 3.56341 16.3939 2.05453 14.3264C0.791949 12.6005 0.074634 10.5154 1.31699e-06 8.35426C-0.00163774 5.41139 1.52675 2.69387 4.00359 1.23575ZM5.43527 9.57234C5.85191 10.613 6.83534 11.2918 7.92638 11.2918C8.64114 11.297 9.32823 11.007 9.83453 10.4863C10.3408 9.96555 10.6243 9.25747 10.6218 8.51978C10.6256 7.39377 9.9713 6.37645 8.96441 5.94281C7.95752 5.50918 6.79664 5.74477 6.02381 6.53959C5.25098 7.3344 5.01864 8.53166 5.43527 9.57234Z" fill="#121212"/>
<ellipse opacity="0.4" cx="7.93505" cy="21.9827" rx="5.66821" ry="1.14858" fill="#121212"/>
</svg>
