<svg width="55" height="60" viewBox="0 0 55 60" fill="none" xmlns="http://www.w3.org/2000/svg">
<path d="M24.9434 0.639181C26.4418 -0.211139 28.3933 -0.21498 29.8903 0.639181C37.4217 4.85856 44.9555 9.07132 52.4856 13.2933C53.9019 14.0843 54.8493 15.6471 54.8349 17.2651V42.6505C54.8454 44.3356 53.8044 45.9357 52.3102 46.7088C44.8036 50.9049 37.3008 55.1061 29.7954 59.3023C28.2661 60.1692 26.2754 60.1024 24.7939 59.1644C22.5434 57.8709 20.289 56.5838 18.0383 55.2916C17.5784 55.0197 17.06 54.8034 16.7352 54.3612C17.0223 53.9776 17.5356 53.9298 17.9527 53.7623C18.8921 53.4661 19.7549 52.9907 20.6179 52.5294C20.8361 52.3813 21.1025 52.438 21.3117 52.5705C23.2362 53.6645 25.1436 54.7903 27.0745 55.8739C27.4864 56.1097 27.9035 55.7966 28.2556 55.602C35.6219 51.4742 42.9973 47.3619 50.3623 43.2328C50.6352 43.1027 50.7861 42.8154 50.7639 42.5191C50.7691 34.145 50.7652 25.7694 50.7665 17.3953C50.7977 17.059 50.6014 16.7498 50.2947 16.6122C42.8141 12.4353 35.3374 8.25194 27.8581 4.07396C27.7285 3.98563 27.575 3.93824 27.4177 3.93801C27.2605 3.93778 27.1068 3.98473 26.977 4.07268C19.4977 8.25194 12.0222 12.4391 4.54291 16.6158C4.23731 16.7536 4.03221 17.0577 4.06858 17.3953C4.06987 25.7694 4.06858 34.145 4.06858 42.5203C4.05561 42.665 4.08765 42.81 4.16037 42.9361C4.2331 43.0621 4.34302 43.163 4.47534 43.2251C6.47123 44.3473 8.4697 45.4616 10.4669 46.5799C11.592 47.1804 12.9735 47.5371 14.2131 47.0771C15.307 46.6881 16.0738 45.5813 16.053 44.4297C16.0633 36.1044 16.0478 27.7779 16.0607 19.454C16.0334 19.0844 16.387 18.779 16.7494 18.8138C17.7084 18.8074 18.6687 18.801 19.6277 18.8164C20.028 18.8074 20.3034 19.2054 20.2539 19.5777C20.2501 27.9557 20.2643 36.3338 20.2475 44.7118C20.2501 46.9446 19.3249 49.3741 17.2418 50.4666C14.6756 51.7847 11.5038 51.5051 8.96857 50.2413C6.77382 49.1552 4.67936 47.8734 2.52356 46.7098C1.02546 45.941 -0.0103602 44.3345 0.000185234 42.6507V17.2651C-0.0155254 15.6136 0.969507 14.0224 2.42995 13.2429C9.93531 9.04337 17.4394 4.84063 24.9434 0.639181Z" fill="#8CC84B"/>
<path d="M31.4911 18.2239C34.7645 18.015 38.2688 18.1001 41.2145 19.699C43.4951 20.9242 44.7595 23.4956 44.7997 26.0077C44.736 26.3466 44.3787 26.5335 44.0525 26.5103C43.1027 26.509 42.1528 26.5231 41.2031 26.5039C40.8002 26.5192 40.566 26.1509 40.5154 25.7978C40.2426 24.5958 39.5814 23.4054 38.4404 22.8256C36.6887 21.9561 34.6578 21.9998 32.7477 22.018C31.3534 22.0914 29.854 22.2111 28.6727 23.0241C27.7658 23.6399 27.4903 24.883 27.814 25.8842C28.1191 26.6031 28.9561 26.835 29.6409 27.0488C33.5858 28.0718 37.7661 27.97 41.6356 29.3162C43.2377 29.865 44.8049 30.9319 45.3532 32.595C46.0705 34.824 45.7561 37.4882 44.1566 39.2776C42.8596 40.7502 40.9704 41.5516 39.0862 41.9869C36.5796 42.5411 33.9783 42.5552 31.4328 42.3091C29.0392 42.0386 26.5483 41.4151 24.7005 39.7981C23.1204 38.4378 22.3486 36.3183 22.4252 34.2726C22.4435 33.9271 22.7905 33.6862 23.1243 33.7146C24.0807 33.7069 25.0371 33.7044 25.9935 33.7159C26.3755 33.6888 26.6587 34.0161 26.6783 34.3731C26.8548 35.5183 27.2888 36.7203 28.296 37.3993C30.2399 38.6426 32.6789 38.5575 34.9046 38.5923C36.7486 38.5112 38.8185 38.4866 40.3233 37.2783C41.1172 36.589 41.3524 35.4359 41.1378 34.4439C40.9054 33.6064 40.0217 33.2162 39.2629 32.9609C35.3686 31.7396 31.1416 32.1828 27.285 30.8015C25.7193 30.2529 24.2053 29.2157 23.6037 27.6209C22.7644 25.3638 23.149 22.5719 24.9161 20.8429C26.6391 19.123 29.1263 18.4607 31.4911 18.2236V18.2239Z" fill="#8CC84B"/>
</svg>
