<svg width="58" height="59" viewBox="0 0 58 59" fill="none" xmlns="http://www.w3.org/2000/svg">
<path d="M28.7271 0.154541C14.0331 0.154541 14.9506 6.56 14.9506 6.56L14.9669 13.1963H28.9891V15.1886H9.39752C9.39752 15.1886 -0.00512695 14.1167 -0.00512695 29.0203C-0.00512695 43.9243 8.20174 43.3957 8.20174 43.3957H13.0996V36.4797C13.0996 36.4797 12.8355 28.2299 21.1754 28.2299H35.0829C35.0829 28.2299 42.8965 28.3568 42.8965 20.6388V7.87755C42.8965 7.87755 44.0833 0.154541 28.7271 0.154541ZM20.9952 4.61729C21.3266 4.61699 21.6548 4.68238 21.9609 4.8097C22.2671 4.93703 22.5453 5.1238 22.7796 5.35933C23.0139 5.59486 23.1997 5.87451 23.3264 6.1823C23.4531 6.49009 23.5181 6.81996 23.5178 7.15305C23.5181 7.48613 23.4531 7.81601 23.3264 8.1238C23.1997 8.43158 23.0139 8.71124 22.7796 8.94677C22.5453 9.18229 22.2671 9.36907 21.9609 9.49639C21.6548 9.62372 21.3266 9.68911 20.9952 9.68881C20.6639 9.68911 20.3357 9.62372 20.0295 9.49639C19.7234 9.36907 19.4452 9.18229 19.2108 8.94677C18.9765 8.71124 18.7907 8.43158 18.6641 8.1238C18.5374 7.81601 18.4724 7.48613 18.4727 7.15305C18.4724 6.81996 18.5374 6.49009 18.6641 6.1823C18.7907 5.87451 18.9765 5.59486 19.2108 5.35933C19.4452 5.1238 19.7234 4.93703 20.0295 4.8097C20.3357 4.68238 20.6639 4.61699 20.9952 4.61729Z" fill="url(#paint0_linear_112_361)"/>
<path d="M29.1443 58.036C43.8383 58.036 42.9208 51.6306 42.9208 51.6306L42.9045 44.9945H28.8821V43.0021H48.4736C48.4736 43.0021 57.8763 44.0741 57.8763 29.17C57.8763 14.2662 49.6694 14.7948 49.6694 14.7948H44.7716V21.7106C44.7716 21.7106 45.0356 29.9604 36.6957 29.9604H22.7883C22.7883 29.9604 14.9746 29.8335 14.9746 37.5517V50.3132C14.9746 50.3132 13.7881 58.036 29.1441 58.036H29.1443ZM36.8761 53.5737C36.5448 53.574 36.2166 53.5086 35.9104 53.3813C35.6043 53.254 35.3261 53.0672 35.0918 52.8317C34.8574 52.5962 34.6716 52.3165 34.545 52.0087C34.4183 51.7009 34.3533 51.371 34.3536 51.038C34.3532 50.7049 34.4183 50.375 34.5449 50.0671C34.6716 49.7593 34.8574 49.4796 35.0917 49.2441C35.326 49.0085 35.6042 48.8218 35.9104 48.6944C36.2166 48.5671 36.5448 48.5017 36.8761 48.502C37.2075 48.5017 37.5357 48.5671 37.8418 48.6944C38.148 48.8217 38.4262 49.0085 38.6605 49.244C38.8948 49.4795 39.0806 49.7592 39.2073 50.067C39.334 50.3748 39.399 50.7046 39.3987 51.0377C39.399 51.3708 39.334 51.7007 39.2073 52.0085C39.0806 52.3163 38.8948 52.5959 38.6605 52.8315C38.4262 53.067 38.148 53.2538 37.8418 53.3811C37.5357 53.5084 37.2075 53.5738 36.8761 53.5735V53.5737Z" fill="url(#paint1_linear_112_361)"/>
<defs>
<linearGradient id="paint0_linear_112_361" x1="5.55726" y1="5.36062" x2="34.3895" y2="33.7569" gradientUnits="userSpaceOnUse">
<stop stop-color="#387EB8"/>
<stop offset="1" stop-color="#366994"/>
</linearGradient>
<linearGradient id="paint1_linear_112_361" x1="23.1637" y1="23.6916" x2="54.1188" y2="52.8023" gradientUnits="userSpaceOnUse">
<stop stop-color="#FFE052"/>
<stop offset="1" stop-color="#FFC331"/>
</linearGradient>
</defs>
</svg>
