<svg width="44" height="44" viewBox="0 0 44 44" fill="none" xmlns="http://www.w3.org/2000/svg">
<g clip-path="url(#clip0_112_422)">
<path d="M19.5398 0.0929832C15.2935 0.558216 11.3009 2.19922 8.07813 4.79606C6.98695 5.67577 5.20215 7.51133 4.41548 8.56021C2.17391 11.5546 0.744375 14.972 0.203014 18.6515C0.016921 19.895 -0.0422904 22.2719 0.0761324 23.5153C0.431401 27.178 1.59871 30.5615 3.50193 33.4459C7.00386 38.7665 12.3583 42.1754 18.6516 43.1058C19.895 43.2919 22.2719 43.3511 23.5154 43.2327C27.178 42.8774 30.5615 41.7101 33.446 39.8069C38.7665 36.305 42.1754 30.9506 43.1059 24.6572C43.292 23.4138 43.3512 21.0369 43.2328 19.7935C42.8014 15.3611 41.2196 11.4362 38.5128 8.07806C37.6331 6.98688 35.7975 5.20208 34.7486 4.41542C31.7542 2.17384 28.3623 0.761227 24.6573 0.20295C23.6338 0.0506897 20.5379 -0.0169792 19.5398 0.0929832ZM27.2288 19.9542C30.164 25.0886 32.5663 29.3011 32.5663 29.318C32.5663 29.3349 27.7532 29.3519 21.8659 29.3519C15.9786 29.3519 11.1656 29.3349 11.1656 29.3096C11.1656 29.2419 21.849 10.5649 21.8744 10.5988C21.8828 10.6072 24.302 14.8197 27.2288 19.9542Z" fill="#121212"/>
</g>
<defs>
<clipPath id="clip0_112_422">
<rect width="43.3089" height="43.3089" fill="white"/>
</clipPath>
</defs>
</svg>
