<svg width="42" height="42" viewBox="0 0 42 42" fill="none" xmlns="http://www.w3.org/2000/svg">
<path d="M0.394514 14.4598C0.394514 14.4598 -0.615442 13.7239 0.596505 12.7413L3.42017 10.1891C3.42017 10.1891 4.22814 9.32987 5.08239 10.0785L31.1392 30.0196V39.5818C31.1392 39.5818 31.1266 41.0834 29.2203 40.9175L0.394514 14.4598Z" fill="#2489CA"/>
<path d="M7.11071 20.6233L0.394496 26.7953C0.394496 26.7953 -0.295641 27.3143 0.394496 28.2416L3.51274 31.1085C3.51274 31.1085 4.25337 31.9125 5.34749 30.9979L12.4677 25.5405L7.11071 20.6233Z" fill="#1070B3"/>
<path d="M18.902 20.6745L31.2193 11.1675L31.1394 1.65635C31.1394 1.65635 30.6133 -0.419432 28.8585 0.660998L12.4678 15.7402L18.902 20.6745Z" fill="#0877B9"/>
<path d="M29.2204 40.9303C29.9357 41.6704 30.8026 41.428 30.8026 41.428L40.4014 36.6469C41.6302 35.8004 41.4577 34.7497 41.4577 34.7497V6.19921C41.4577 4.94438 40.1868 4.51051 40.1868 4.51051L31.8673 0.456775C30.0494 -0.678951 28.8585 0.660951 28.8585 0.660951C28.8585 0.660951 30.3902 -0.453507 31.1393 1.65631V39.4075C31.1393 39.667 31.0846 39.9222 30.9752 40.1519C30.7563 40.5985 30.2808 41.0154 29.1404 40.841L29.2204 40.9303Z" fill="#3C99D4"/>
</svg>
