<svg width="50" height="57" viewBox="0 0 50 57" fill="none" xmlns="http://www.w3.org/2000/svg">
<path d="M49.7297 0L45.1992 51.1446L24.8344 56.834L4.52571 51.1527L0 0H49.7297Z" fill="#264DE4"/>
<path d="M41.3206 47.8883L45.1922 4.18286H24.8649V52.4857L41.3206 47.8883Z" fill="#2965F1"/>
<path d="M10.3751 23.1543L10.9331 29.4279H24.8649V23.1543H10.3751Z" fill="#EBEBEB"/>
<path d="M24.8649 10.4561H24.8433H9.25391L9.81984 16.7298H24.8649V10.4561Z" fill="#EBEBEB"/>
<path d="M24.8648 45.9746V39.4473L24.8375 39.4546L17.904 37.568L17.4607 32.5645H14.0916H11.2112L12.0834 42.415L24.8362 45.9826L24.8648 45.9746Z" fill="#EBEBEB"/>
<path d="M32.5096 29.4277L31.7869 37.5642L24.8434 39.4527V45.9797L37.6063 42.4152L37.6999 41.3553L39.1629 24.8388L39.3148 23.1541L40.4387 10.4561H24.8434V16.7298H33.6159L33.0495 23.1541H24.8434V29.4277H32.5096Z" fill="white"/>
</svg>
