<svg width="22" height="22" viewBox="0 0 22 22" fill="none" xmlns="http://www.w3.org/2000/svg">
<mask id="mask0_55_71" style="mask-type:alpha" maskUnits="userSpaceOnUse" x="0" y="0" width="22" height="22">
<rect x="0.917099" y="0.824707" width="20.6114" height="20.8831" fill="#D9D9D9"/>
</mask>
<g mask="url(#mask0_55_71)">
<path d="M10.4382 14.3769C10.3244 14.3769 10.2176 14.3588 10.118 14.3225C10.0183 14.2863 9.9258 14.2246 9.8404 14.1376L6.76586 11.0052C6.60929 10.8456 6.531 10.6426 6.531 10.3961C6.531 10.1495 6.60929 9.9465 6.76586 9.78698C6.92244 9.62746 7.12527 9.54407 7.37437 9.53682C7.62346 9.52957 7.82629 9.6057 7.98287 9.76523L9.58419 11.3967V5.1753C9.58419 4.92877 9.66603 4.72211 9.82972 4.55534C9.99341 4.38856 10.1962 4.30518 10.4382 4.30518C10.6802 4.30518 10.883 4.38856 11.0467 4.55534C11.2104 4.72211 11.2923 4.92877 11.2923 5.1753V11.3967L12.8936 9.76523C13.0502 9.6057 13.253 9.52957 13.5021 9.53682C13.7512 9.54407 13.954 9.62746 14.1106 9.78698C14.2672 9.9465 14.3454 10.1495 14.3454 10.3961C14.3454 10.6426 14.2672 10.8456 14.1106 11.0052L11.036 14.1376C10.9506 14.2246 10.8581 14.2863 10.7585 14.3225C10.6589 14.3588 10.5521 14.3769 10.4382 14.3769ZM5.314 18.2272C4.84428 18.2272 4.44217 18.0568 4.10767 17.716C3.77318 17.3752 3.60593 16.9655 3.60593 16.487V14.7467C3.60593 14.5002 3.68777 14.2935 3.85146 14.1267C4.01515 13.96 4.21799 13.8766 4.45996 13.8766C4.70194 13.8766 4.90477 13.96 5.06847 14.1267C5.23216 14.2935 5.314 14.5002 5.314 14.7467V16.487H15.5624V14.7467C15.5624 14.5002 15.6443 14.2935 15.808 14.1267C15.9717 13.96 16.1745 13.8766 16.4165 13.8766C16.6585 13.8766 16.8613 13.96 17.025 14.1267C17.1887 14.2935 17.2705 14.5002 17.2705 14.7467V16.487C17.2705 16.9655 17.1033 17.3752 16.7688 17.716C16.4343 18.0568 16.0322 18.2272 15.5624 18.2272H5.314Z" fill="#121212"/>
</g>
</svg>
