<svg width="74" height="17" viewBox="0 0 74 17" fill="none" xmlns="http://www.w3.org/2000/svg">
<path d="M22.6764 16.2474V0.31783H23.544V2.82357C23.6465 2.71246 23.7411 2.59444 23.8272 2.47035C24.5519 0.973124 26.0804 0.0282006 27.749 0.0468643C29.7273 -0.0118916 31.3349 0.717366 32.2796 2.47035C32.8807 3.55937 33.2116 4.77582 33.2444 6.01812C33.2772 7.26042 33.0112 8.49251 32.4684 9.61153C31.5882 11.576 29.4142 12.5528 27.0868 12.194C26.3625 12.1327 25.6652 11.8917 25.0584 11.493C24.4517 11.0943 23.9549 10.5506 23.6134 9.91153V16.2467L22.6764 16.2474ZM23.544 5.95281L23.7384 7.8233C24.0813 9.95231 25.3453 11.2104 27.3298 11.4468C28.2617 11.5994 29.218 11.4254 30.0355 10.9545C30.853 10.4835 31.4813 9.74485 31.8131 8.8643C32.585 7.03252 32.5281 4.95881 31.6604 3.16988C31.3062 2.38054 30.7037 1.72746 29.9438 1.30932C29.1839 0.891178 28.308 0.730708 27.4485 0.852157C26.6416 0.910609 25.8731 1.21784 25.2497 1.73118C24.6262 2.24452 24.1788 2.93847 23.9695 3.71665C23.7847 4.45306 23.6427 5.19945 23.544 5.95212V5.95281ZM50.9606 8.11777C50.829 9.23935 50.2928 10.2752 49.4518 11.0326C48.6108 11.79 47.5222 12.2175 46.3884 12.2355C42.7498 12.418 41.0422 10.0118 40.7708 7.23505C40.5821 5.72716 40.8279 4.19691 41.4795 2.82288C41.9331 1.8803 42.6761 1.10598 43.6011 0.612095C44.5261 0.118211 45.585 -0.0695906 46.6244 0.0758959C47.6124 0.159531 48.5491 0.550494 49.3017 1.19345C50.0544 1.83641 50.5849 2.69881 50.8183 3.65859C51.0031 4.53289 51.1391 5.41673 51.2257 6.30603H41.6697C41.4927 8.82352 42.8511 10.8475 44.7766 11.3355C47.1748 11.923 49.2246 10.8883 49.9687 8.61753C50.1339 8.03482 50.4351 7.95256 50.9668 8.11777H50.9606ZM41.6628 5.50005H50.2102C50.1568 2.81804 48.4798 0.868747 46.2051 0.846627C43.6369 0.805153 41.7745 2.67634 41.6628 5.50005ZM52.7271 8.17652H53.5649C53.5957 8.79119 53.7961 9.38549 54.1442 9.89404C54.4922 10.4026 54.9744 10.8057 55.5376 11.059C56.2448 11.3759 57.0147 11.53 57.79 11.5096C58.5653 11.4893 59.326 11.2951 60.0154 10.9415C60.3913 10.773 60.7061 10.4936 60.9174 10.1412C61.1287 9.78871 61.2262 9.38018 61.1968 8.97075C61.2185 8.5759 61.1102 8.18478 60.8885 7.85672C60.6668 7.52865 60.3437 7.28152 59.9682 7.1528C59.0464 6.81132 58.0663 6.62331 57.1272 6.32331C56.1499 6.04624 55.1943 5.69831 54.2681 5.28231C52.7549 4.54683 52.6612 1.68233 54.3743 0.775429C55.2514 0.282514 56.2386 0.0161789 57.2457 0.000723993C58.2527 -0.0147309 59.2477 0.221186 60.1397 0.686951C61.2461 1.29524 61.8576 2.52357 61.6758 3.76988H60.9574C60.9574 3.73531 60.8921 3.7049 60.8921 3.66965C60.8033 1.38856 58.8778 0.6752 56.8106 0.875659C56.1859 0.944783 55.5938 1.1328 55.0385 1.41068C54.7047 1.56249 54.4266 1.81386 54.2425 2.13003C54.0585 2.44619 53.9777 2.8115 54.0112 3.17541C54.0119 3.53959 54.1259 3.89462 54.3375 4.19169C54.549 4.48875 54.8478 4.71327 55.1926 4.83438C56.095 5.1641 57.0529 5.37562 57.9865 5.63415L60.2424 6.2217C60.7551 6.3893 61.2047 6.70795 61.5317 7.13549C61.8586 7.56304 62.0476 8.07936 62.0735 8.61615C62.254 9.82236 61.6362 11.0078 60.5437 11.5574C58.571 12.6689 55.3218 12.3751 53.8745 10.9698C53.1339 10.2281 52.7209 9.22098 52.7292 8.17583L52.7271 8.17652ZM72.704 3.77057H71.9183C71.9183 3.66481 71.8766 3.56319 71.8648 3.48232C71.8523 2.89578 71.6376 2.33138 71.2569 1.88372C70.8761 1.43607 70.3523 1.13238 69.7734 1.02358C68.6814 0.711677 67.5165 0.767565 66.4597 1.18257C66.0418 1.30167 65.6738 1.55227 65.4109 1.8969C65.1479 2.24154 65.0039 2.66169 65.0006 3.09454C64.9857 3.51955 65.1186 3.93666 65.3768 4.27535C65.6351 4.61404 66.0029 4.85351 66.418 4.95328L70.0094 5.87124C70.3978 5.964 70.7803 6.07988 71.1547 6.21824C72.3001 6.63299 73.0775 7.69196 73.1122 8.90232C73.1293 9.49477 72.9662 10.0785 72.6441 10.5769C72.322 11.0753 71.856 11.4651 71.3074 11.6949C70.4739 12.072 69.5704 12.2715 68.6549 12.2807C67.7395 12.2898 66.8322 12.1085 65.9911 11.7482C65.2995 11.4512 64.7159 10.9503 64.3187 10.313C63.9216 9.67563 63.7301 8.93244 63.7699 8.18343H64.5377C64.8264 9.56937 65.7822 10.7237 67.0934 11.2698C68.4046 11.8159 69.9018 11.6818 71.0944 10.9131C71.4521 10.7278 71.7491 10.4443 71.9501 10.0962C72.1512 9.74802 72.2478 9.34978 72.2286 8.94864C72.2464 8.5535 72.1343 8.16337 71.9093 7.83741C71.6843 7.51146 71.3587 7.26746 70.9819 7.14243C70.0601 6.80096 69.08 6.61916 68.1409 6.31294C67.1581 6.04013 66.1967 5.69613 65.2644 5.28369C63.7873 4.55996 63.6693 1.71897 65.3532 0.812756C66.2413 0.299154 67.2477 0.0232338 68.2746 0.0118475C69.3014 0.000461117 70.3138 0.253997 71.2131 0.74778C71.7274 1.05348 72.1414 1.50153 72.4047 2.03736C72.6679 2.5732 72.769 3.17369 72.6957 3.76573L72.704 3.77057ZM21.2486 11.9479C20.9393 12.0644 20.5978 12.0641 20.2888 11.947C19.9797 11.83 19.7243 11.6044 19.5709 11.3127L16.5167 7.10648L16.0739 6.51893L12.5296 11.3189C12.3852 11.598 12.1436 11.8153 11.8501 11.93C11.5566 12.0447 11.2311 12.0491 10.9345 11.9424L15.5005 5.84221L11.2525 0.330272C11.8827 0.103546 12.5852 0.349627 12.9357 0.917825L16.1009 5.17586L19.2849 0.934414C19.4304 0.660051 19.6721 0.448524 19.964 0.340064C20.256 0.231604 20.5777 0.233777 20.8682 0.34617L19.2196 2.52426L16.9866 5.41848C16.9246 5.47359 16.8751 5.54112 16.8411 5.61665C16.8072 5.69217 16.7896 5.77398 16.7896 5.85673C16.7896 5.93947 16.8072 6.02128 16.8411 6.0968C16.8751 6.17233 16.9246 6.23986 16.9866 6.29497L21.2395 11.9479H21.2486ZM40.6355 0.271517V1.101C40.038 1.06198 39.439 1.14814 38.877 1.35392C38.3151 1.55971 37.8027 1.88054 37.373 2.29572C36.9433 2.71089 36.6057 3.21119 36.3822 3.76431C36.1586 4.31743 36.054 4.91108 36.0751 5.50696V11.9776H35.2303V0.32336H36.0633V2.71159C37.085 0.969667 38.6621 0.32336 40.641 0.276355L40.6355 0.271517ZM0.00138823 5.76617L0.373439 3.93646C1.39519 0.31852 5.55994 -1.187 8.42529 1.054C10.103 2.36597 10.5215 4.22471 10.4396 6.31916H0.98774C0.835032 10.0601 3.54559 12.3191 7.01274 11.1661C8.15527 10.7514 9.01529 9.80577 9.2985 8.63066C9.48175 8.04311 9.78438 7.94219 10.3383 8.11224C10.2459 8.82845 9.99167 9.51448 9.59468 10.1187C9.19769 10.723 8.66829 11.2298 8.0463 11.6009C7.01868 12.1606 5.83968 12.3823 4.67789 12.2345C3.51609 12.0866 2.43099 11.5767 1.57775 10.7777C0.73369 9.83273 0.224202 8.63827 0.124942 7.37676C0.124942 7.16939 0.05553 6.97584 0.00694123 6.78921C0.00231374 6.44036 0 6.09935 0 5.76617H0.00138823ZM0.99954 5.51318H9.54699C9.49355 2.80145 7.77489 0.877733 5.48289 0.859761C2.93129 0.825198 1.10574 2.70675 0.993293 5.50143L0.99954 5.51318Z" fill="#121212"/>
</svg>
