<svg width="35" height="52" viewBox="0 0 35 52" fill="none" xmlns="http://www.w3.org/2000/svg">
<path d="M8.60035 51.602C13.3477 51.602 17.2007 47.7491 17.2007 43.0017V34.4014H8.60035C3.85296 34.4014 0 38.2543 0 43.0017C0 47.7491 3.85296 51.602 8.60035 51.602Z" fill="#0ACF83"/>
<path d="M0 25.801C0 21.0536 3.85296 17.2007 8.60035 17.2007H17.2007V34.4013H8.60035C3.85296 34.4013 0 30.5484 0 25.801Z" fill="#A259FF"/>
<path d="M0 8.60034C0 3.85295 3.85296 0 8.60035 0H17.2007V17.2007H8.60035C3.85296 17.2007 0 13.3477 0 8.60034Z" fill="#F24E1E"/>
<path d="M17.2006 0H25.801C30.5484 0 34.4013 3.85295 34.4013 8.60034C34.4013 13.3477 30.5484 17.2007 25.801 17.2007H17.2006V0Z" fill="#FF7262"/>
<path d="M33.7871 26.1081C33.7871 30.8555 29.9341 34.7085 25.1867 34.7085C20.4393 34.7085 16.5864 30.8555 16.5864 26.1081C16.5864 21.3608 20.4393 17.5078 25.1867 17.5078C29.9341 17.5078 33.7871 21.3608 33.7871 26.1081Z" fill="#1ABCFE"/>
</svg>
