<svg width="57" height="57" viewBox="0 0 57 57" fill="none" xmlns="http://www.w3.org/2000/svg">
<path d="M55.1495 25.6007L30.6078 1.06004C29.1954 -0.353346 26.9031 -0.353346 25.4888 1.06004L20.3926 6.15631L26.8574 12.6212C28.3597 12.1135 30.0824 12.4541 31.2799 13.6516C32.4832 14.8569 32.8213 16.5943 32.3014 18.1015L38.5316 24.3321C40.039 23.8128 41.7782 24.1487 42.9821 25.3546C44.6646 27.0365 44.6646 29.7625 42.9821 31.4455C41.2991 33.1288 38.5731 33.1288 36.8893 31.4455C35.6237 30.1786 35.311 28.3199 35.9517 26.7607L30.1415 20.9504L30.1408 36.2408C30.562 36.449 30.9467 36.7241 31.2799 37.0554C32.9625 38.7373 32.9625 41.4635 31.2799 43.1478C29.597 44.8302 26.8697 44.8302 25.1891 43.1478C23.5066 41.4635 23.5066 38.7375 25.1891 37.0556C25.5923 36.6522 26.0715 36.3327 26.599 36.1156V20.6828C26.0707 20.4671 25.5913 20.1475 25.1891 19.7428C23.9143 18.4697 23.6078 16.5992 24.261 15.0338L17.8882 8.66031L1.06052 25.4872C-0.353505 26.9019 -0.353505 29.1945 1.06052 30.6081L25.6026 55.1492C27.0155 56.5628 29.3073 56.5628 30.722 55.1492L55.1492 30.722C56.5628 29.308 56.563 27.0141 55.1495 25.6007Z" fill="#DE4C36"/>
</svg>
