<svg width="50" height="50" viewBox="0 0 50 50" fill="none" xmlns="http://www.w3.org/2000/svg">
<path d="M14.6427 36.4776L4.60065 28.5732L9.589 19.3076L23.9072 24.8796L14.6427 36.4776Z" fill="#F57C00"/>
<path d="M45.6126 15.2263L44.8351 39.1988L28.8966 45.6126L19.3076 39.3927L33.3024 24.8796L45.6126 15.2263Z" fill="#1E88E5"/>
<path d="M45.6126 15.2262L32.9779 30.1281L27.212 11.4031L32.7198 4.79443L45.6126 15.2262Z" fill="#2962FF"/>
<path d="M35.9593 20.3442L24.1021 38.5509L7.51569 44.5759L10.1726 35.2461L13.606 23.7133L35.9593 20.3442Z" fill="#AB47BC"/>
<path d="M13.606 23.7132L4.14661 20.539L10.1726 4.14648L23.1308 5.70146L35.9593 20.3441L13.606 23.7132Z" fill="#E91E63"/>
<path d="M11.4031 11.4031H37.3194V37.3193H11.4031V11.4031Z" fill="#000001"/>
<path d="M14.5131 32.6545H23.8429V34.2095H14.5131V32.6545ZM21.2513 16.4569V14.5132H16.068V16.4569H17.623V23.1951H16.068V25.1388H21.2513V23.1951H19.8611V16.4569H21.2513ZM26.3049 25.398C24.3612 25.398 23.3287 24.2598 22.9358 23.7933L24.3985 22.1294C24.6629 22.4218 25.3979 23.1951 26.3049 23.1951C27.4712 23.1951 27.7303 22.0289 27.7303 21.381V14.5132H30.0628V21.381C30.0628 22.0279 30.0628 23.0655 29.2853 24.1022C28.7411 24.8278 27.4712 25.398 26.3049 25.398Z" fill="white"/>
</svg>
