<svg width="49" height="68" viewBox="0 0 49 68" fill="none" xmlns="http://www.w3.org/2000/svg">
<path d="M15.7444 51.8309C15.7444 51.8309 13.2189 53.3202 17.5418 53.8241C22.7789 54.4299 25.4554 54.3432 31.2267 53.2354C31.2267 53.2354 32.7442 54.2002 34.863 55.0359C21.9255 60.6589 5.58243 54.7101 15.7444 51.8309ZM14.1634 44.4932C14.1634 44.4932 11.3309 46.6195 15.657 47.0732C21.2513 47.6585 25.6693 47.7064 33.3142 46.2136C33.3142 46.2136 34.3716 47.3006 36.0343 47.8952C20.3918 52.5337 2.96893 48.261 14.1634 44.4932Z" fill="#5382A1"/>
<path d="M27.4911 32.0462C30.679 35.768 26.6535 39.1173 26.6535 39.1173C26.6535 39.1173 34.7479 34.8798 31.0305 29.5734C27.5586 24.6252 24.896 22.1662 39.3099 13.689C39.3099 13.689 16.6849 19.4192 27.4911 32.046" fill="#E76F00"/>
<path d="M44.6022 57.2584C44.6022 57.2584 46.4712 58.8199 42.5439 60.0281C35.0761 62.3223 11.4621 63.0151 4.90218 60.1195C2.54415 59.0794 6.9663 57.6357 8.35724 57.3326C9.80788 57.0135 10.637 57.0731 10.637 57.0731C8.01453 55.1996 -6.31355 60.7517 3.35912 62.3415C29.7376 66.6797 51.4444 60.3883 44.6022 57.2584ZM16.9587 36.8906C16.9587 36.8906 4.94734 39.7839 12.7053 40.8343C15.9809 41.2791 22.5108 41.1786 28.5933 40.6616C33.5643 40.2366 38.5557 39.3324 38.5557 39.3324C38.5557 39.3324 36.8029 40.0936 35.5348 40.9717C23.3373 44.2249 -0.226252 42.7115 6.55738 39.3838C12.2943 36.5716 16.9589 36.8906 16.9589 36.8906H16.9587ZM38.5061 49.1045C50.9058 42.5705 45.1727 36.2914 41.1711 37.1375C40.1902 37.3443 39.753 37.5236 39.753 37.5236C39.753 37.5236 40.1171 36.9454 40.8125 36.695C48.7288 33.8726 54.817 45.0192 38.257 49.4338C38.257 49.434 38.4489 49.2601 38.5061 49.1045Z" fill="#5382A1"/>
<path d="M31.0306 0.000194046C31.0306 0.000194046 37.8977 6.96653 24.5175 17.6782C13.7882 26.271 22.0709 31.1704 24.5131 36.7681C18.2502 31.0378 13.6539 25.9934 16.7375 21.2986C21.2632 14.4065 33.8012 11.0652 31.0306 0" fill="#E76F00"/>
<path d="M18.1772 66.8098C30.0791 67.5825 48.3558 66.3812 48.7886 60.6702C48.7886 60.6702 47.9566 62.8353 38.9523 64.5546C28.7938 66.4931 16.2648 66.2669 8.83362 65.0244C8.83381 65.0244 10.3549 66.3012 18.1774 66.8098" fill="#5382A1"/>
</svg>
