<svg width="36" height="36" viewBox="0 0 36 36" fill="none" xmlns="http://www.w3.org/2000/svg">
<g clip-path="url(#clip0_57_481)">
<path d="M32.5373 0.180298H2.67851C1.24819 0.180298 0.0916138 1.32438 0.0916138 2.73888V33.116C0.0916138 34.5305 1.24819 35.6815 2.67851 35.6815H32.5373C33.9676 35.6815 35.131 34.5305 35.131 33.1229V2.73888C35.131 1.32438 33.9676 0.180298 32.5373 0.180298ZM10.4871 30.4326H5.28593V13.4863H10.4871V30.4326ZM7.88651 11.1773C6.21666 11.1773 4.86847 9.81138 4.86847 8.12646C4.86847 6.44154 6.21666 5.07558 7.88651 5.07558C9.54951 5.07558 10.8977 6.44154 10.8977 8.12646C10.8977 9.80445 9.54951 11.1773 7.88651 11.1773ZM29.9504 30.4326H24.7561V22.1952C24.7561 20.2329 24.7218 17.7021 22.0528 17.7021C19.3496 17.7021 18.939 19.8446 18.939 22.0565V30.4326H13.7515V13.4863H18.7337V15.8022H18.8021C19.4933 14.4709 21.1905 13.0634 23.7158 13.0634C28.9786 13.0634 29.9504 16.5719 29.9504 21.1343V30.4326V30.4326Z" fill="#F5F5F5"/>
</g>
<defs>
<clipPath id="clip0_57_481">
<rect width="35.0394" height="35.5012" fill="white" transform="translate(0.0916138 0.180298)"/>
</clipPath>
</defs>
</svg>
