<svg width="17" height="24" viewBox="0 0 17 24" fill="none" xmlns="http://www.w3.org/2000/svg">
<path fill-rule="evenodd" clip-rule="evenodd" d="M4.42579 1.23575C6.88888 -0.222373 9.91641 -0.196887 12.3564 1.30251C14.7724 2.83244 16.2407 5.56293 16.2271 8.50016C16.1708 11.4181 14.5963 14.161 12.6282 16.2814C11.4922 17.5107 10.2215 18.5978 8.84184 19.5203C8.69976 19.6041 8.54412 19.6601 8.38261 19.6857C8.22717 19.679 8.07579 19.6322 7.94212 19.5495C5.83588 18.1633 3.98806 16.3939 2.48756 14.3264C1.23199 12.6005 0.518661 10.5154 0.444443 8.35426C0.442813 5.41139 1.96271 2.69387 4.42579 1.23575ZM5.84952 9.57234C6.26384 10.613 7.24181 11.2918 8.32679 11.2918C9.03758 11.297 9.72084 11.007 10.2243 10.4863C10.7278 9.96555 11.0097 9.25747 11.0072 8.51978C11.011 7.39377 10.3604 6.37645 9.35905 5.94281C8.35775 5.50918 7.20332 5.74477 6.43478 6.53959C5.66624 7.3344 5.4352 8.53166 5.84952 9.57234Z" fill="#F5F5F5"/>
<ellipse opacity="0.4" cx="8.3353" cy="21.9827" rx="5.63672" ry="1.14858" fill="#F5F5F5"/>
</svg>
