<svg width="28" height="60" viewBox="0 0 28 60" fill="none" xmlns="http://www.w3.org/2000/svg">
<path d="M13.5177 0.163574L15.1466 3.16646C15.5128 3.7206 15.9095 4.2111 16.3768 4.6679C17.7469 5.99584 19.0239 7.41315 20.1992 8.91012C22.9592 12.4672 24.8208 16.4173 26.1503 20.6895C26.9476 23.2992 27.3805 25.9764 27.413 28.6835C27.5465 36.7767 24.7197 43.726 19.0205 49.5015C18.0934 50.4173 17.0919 51.2576 16.0259 52.0138C15.4613 52.0138 15.1943 51.5889 14.9616 51.1976C14.5378 50.4721 14.2558 49.6752 14.13 48.8481C13.9297 47.869 13.7981 46.8899 13.8629 45.8789V45.4221C13.8171 45.3248 13.3193 0.393845 13.5177 0.163574Z" fill="#599636"/>
<path d="M13.5177 0.0644067C13.451 -0.0666419 13.3842 0.0325806 13.3175 0.0962327C13.3499 0.751476 13.1172 1.33558 12.7529 1.89347C12.3523 2.44762 11.8221 2.87259 11.2899 3.32939C8.33349 5.84178 6.00648 8.87649 4.14297 12.2706C1.66338 16.8386 0.385437 21.7342 0.0230349 26.8882C-0.142907 28.7472 0.621952 35.3071 1.21896 37.1998C2.84786 42.2246 5.77378 46.435 9.56375 50.0894C10.4945 50.9693 11.4902 51.7855 12.5202 52.57C12.8196 52.57 12.8521 52.3079 12.9207 52.1132C13.052 51.6965 13.1521 51.2711 13.2202 50.8401L13.8878 45.9464L13.5177 0.0644067Z" fill="#6CAC48"/>
<path d="M15.1466 54.0022C15.2134 53.2533 15.5796 52.6318 15.9782 52.0121C15.5777 51.8492 15.2801 51.5254 15.0474 51.1641C14.8468 50.8219 14.6807 50.4614 14.5515 50.0876C14.0861 48.7172 13.9869 47.2794 13.8534 45.8791V45.031C13.6875 45.1621 13.6531 46.2703 13.6531 46.4351C13.5561 47.9151 13.356 49.3869 13.0542 50.8402C12.955 51.428 12.8883 52.014 12.5201 52.5363C12.5201 52.6018 12.5201 52.6674 12.5526 52.7647C13.1515 54.4945 13.3155 56.2562 13.4166 58.0516V58.7068C13.4166 59.4893 13.3842 59.3246 14.046 59.5867C14.3131 59.684 14.6106 59.7177 14.8777 59.9124C15.0779 59.9124 15.1104 59.7496 15.1104 59.6185L15.0112 58.542V55.5392C14.9788 55.015 15.0779 54.4945 15.1447 54.004L15.1466 54.0022Z" fill="#C2BFBF"/>
</svg>
