<svg width="58" height="58" viewBox="0 0 58 58" fill="none" xmlns="http://www.w3.org/2000/svg">
<path d="M53.3148 44.7674C50.1656 44.6874 47.7248 45.0083 45.6777 45.8904C45.0872 46.1308 44.1423 46.1311 44.0635 46.8931C44.3785 47.214 44.4179 47.7354 44.6935 48.1764C45.1664 48.9783 45.9925 50.0612 46.7405 50.623C47.5671 51.2645 48.3941 51.906 49.2598 52.4675C50.7953 53.4301 52.5276 53.9914 54.0235 54.954C54.8899 55.515 55.7554 56.2375 56.6216 56.8389C57.0546 57.1593 57.33 57.6811 57.8814 57.8814V57.7613C57.6056 57.4001 57.5269 56.879 57.2515 56.4779C56.8582 56.0768 56.4641 55.7158 56.0704 55.3147C54.9288 53.751 53.5117 52.3873 51.9764 51.2645C50.7168 50.3821 47.9608 49.1791 47.4492 47.6951C47.4492 47.6951 47.4096 47.6552 47.3705 47.6151C48.2364 47.5349 49.2598 47.214 50.0869 46.9733C51.4252 46.6121 52.6455 46.6926 54.0235 46.3316C54.6532 46.1712 55.2832 45.9706 55.9129 45.7701V45.4093C55.2047 44.6874 54.6928 43.725 53.9448 43.0432C51.9371 41.2782 49.7323 39.554 47.4492 38.1103C46.2287 37.3081 44.6539 36.7867 43.3548 36.1051C42.8828 35.8642 42.0952 35.7442 41.8198 35.3431C41.1109 34.4609 40.7172 33.298 40.2056 32.2552C39.0643 30.0492 37.9617 27.6031 36.9774 25.2772C36.2692 23.713 35.8361 22.1488 34.9699 20.7054C30.9151 13.8876 26.506 9.75692 19.7351 5.7062C18.2783 4.86416 16.5462 4.50318 14.696 4.06222C13.7122 4.02188 12.7277 3.9419 11.7436 3.90156C11.1137 3.6208 10.4837 2.85897 9.93254 2.498C7.68906 1.05409 1.90173 -2.07367 0.248363 2.05703C-0.814659 4.66362 1.82321 7.23009 2.72829 8.5539C3.39806 9.47616 4.26377 10.5187 4.73623 11.5616C5.01182 12.2429 5.09034 12.9654 5.36594 13.6871C5.9961 15.4512 6.58622 17.4167 7.41324 19.0611C7.84632 19.9032 8.31855 20.7853 8.86975 21.5474C9.18472 21.9884 9.73569 22.1891 9.85403 22.9109C9.30306 23.713 9.26346 24.9163 8.94826 25.9188C7.53113 30.4505 8.08255 36.065 10.09 39.3936C10.7197 40.3958 12.2158 42.6022 14.2235 41.7597C15.9953 41.038 15.6015 38.7521 16.1129 36.7469C16.2315 36.2651 16.1527 35.9447 16.3887 35.6238V35.7043C16.9399 36.8268 17.4909 37.91 18.0027 39.0328C19.2232 40.9977 21.3488 43.0432 23.1203 44.4069C24.0654 45.1284 24.8133 46.3717 25.9944 46.8129V46.6924H25.9154C25.6792 46.3314 25.3249 46.1712 25.0101 45.8902C24.3017 45.1687 23.514 44.2863 22.963 43.4841C21.3099 41.2381 19.853 38.7518 18.5539 36.1851C17.9242 34.9422 17.3728 33.5785 16.8612 32.3354C16.6247 31.8536 16.6247 31.1322 16.2313 30.8917C15.6407 31.7739 14.7747 32.5359 14.3417 33.6186C13.5941 35.3431 13.5151 37.4686 13.2395 39.6741C13.082 39.7146 13.1605 39.6741 13.0818 39.7548C11.8224 39.4334 11.3893 38.1103 10.9166 36.9873C9.73546 34.14 9.53861 29.5682 10.5625 26.2797C10.8381 25.4375 12.0192 22.7908 11.5468 21.9886C11.3105 21.2265 10.5229 20.7853 10.09 20.1839C9.57843 19.4219 9.02701 18.4597 8.67289 17.6172C7.72798 15.3714 7.25553 12.8849 6.2321 10.6391C5.75965 9.59626 4.93331 8.51379 4.26377 7.55119C3.51594 6.46849 2.68915 5.7062 2.09858 4.42297C1.90195 3.98201 1.62613 3.26006 1.9411 2.77875C2.01984 2.45789 2.1771 2.33779 2.49229 2.25758C3.00412 1.81615 4.46085 2.37767 4.97223 2.61832C6.42896 3.21949 7.64924 3.78146 8.86975 4.62351C9.42072 5.02459 10.0113 5.78665 10.7197 5.98719H11.5465C12.8064 6.26772 14.2233 6.06741 15.4045 6.42816C17.4911 7.10977 19.3805 8.11248 21.0735 9.1954C26.2306 12.5239 30.4818 17.2563 33.3559 22.9109C33.8284 23.8329 34.025 24.6756 34.4581 25.6378C35.2851 27.6031 36.3085 29.6083 37.1349 31.5332C37.9617 33.4179 38.7489 35.3431 39.93 36.9073C40.5206 37.7491 42.8824 38.1905 43.9454 38.6317C44.7328 38.9925 45.9533 39.3136 46.6618 39.7545C48.0002 40.5963 49.3386 41.5594 50.5985 42.4814C51.2284 42.9627 53.1965 43.9655 53.3148 44.7674Z" fill="#00546B"/>
<path d="M13.1603 9.91699C12.4912 9.91699 12.019 9.99767 11.5465 10.1178V10.198H11.6253C11.9404 10.8397 12.4912 11.2809 12.8847 11.8422C13.1999 12.4837 13.4752 13.1257 13.7904 13.7674C13.8296 13.7271 13.869 13.6872 13.869 13.6872C14.4204 13.2859 14.6957 12.6444 14.6957 11.6818C14.4595 11.4012 14.4201 11.1205 14.2233 10.8397C13.9873 10.4384 13.4752 10.2381 13.1603 9.91699Z" fill="#00546B"/>
</svg>
