<svg width="56" height="53" viewBox="0 0 56 53" fill="none" xmlns="http://www.w3.org/2000/svg">
<path d="M27.8649 30.8162C30.4241 30.8162 32.4988 28.7481 32.4988 26.197C32.4988 23.6459 30.4241 21.5779 27.8649 21.5779C25.3056 21.5779 23.231 23.6459 23.231 26.197C23.231 28.7481 25.3056 30.8162 27.8649 30.8162Z" fill="#61DAFB"/>
<path d="M27.8649 35.6607C41.5974 35.6607 52.7297 31.4237 52.7297 26.197C52.7297 20.9704 41.5974 16.7334 27.8649 16.7334C14.1324 16.7334 3 20.9704 3 26.197C3 31.4237 14.1324 35.6607 27.8649 35.6607Z" stroke="#61DAFB" stroke-width="5"/>
<path d="M19.6429 30.9287C26.5091 42.7836 35.7564 50.2753 40.2972 47.662C44.8381 45.0487 42.953 33.3199 36.0867 21.4651C29.2205 9.61024 19.9732 2.11851 15.4324 4.73182C10.8915 7.34514 12.7766 19.0739 19.6429 30.9287Z" stroke="#61DAFB" stroke-width="5"/>
<path d="M19.6429 21.4651C12.7766 33.3199 10.8915 45.0486 15.4324 47.662C19.9732 50.2753 29.2205 42.7835 36.0867 30.9287C42.953 19.0739 44.8381 7.34511 40.2972 4.7318C35.7564 2.11849 26.5091 9.61022 19.6429 21.4651Z" stroke="#61DAFB" stroke-width="5"/>
</svg>
