<svg width="60" height="36" viewBox="0 0 60 36" fill="none" xmlns="http://www.w3.org/2000/svg">
<path d="M29.749 0C21.8157 0 16.8577 3.94689 14.8741 11.8399C17.8494 7.89303 21.3202 6.41351 25.2865 7.39986C27.5498 7.96264 29.1672 9.59693 30.958 11.4052C33.8745 14.351 37.2501 17.7602 44.6239 17.7602C52.5565 17.7602 57.5153 13.8134 59.4981 5.91959C56.5235 9.86648 53.0528 11.3467 49.0857 10.3604C46.8232 9.79761 45.2057 8.16332 43.4149 6.355C40.4984 3.40928 37.1221 0 29.749 0ZM14.8741 17.7602C6.94157 17.7602 1.98277 21.7071 0 29.6009C2.97453 25.654 6.44532 24.1738 10.4123 25.1608C12.6749 25.7244 14.2923 27.3579 16.0832 29.1655C18.9997 32.1112 22.3759 35.5212 29.749 35.5212C37.6824 35.5212 42.6404 31.5743 44.6239 23.6806C41.6486 27.6275 38.1779 29.1077 34.2116 28.1206C31.9483 27.5586 30.3308 25.9236 28.54 24.116C25.6235 21.1703 22.248 17.7602 14.8741 17.7602Z" fill="#06B6D4"/>
</svg>
