<svg width="64" height="36" viewBox="0 0 64 36" fill="none" xmlns="http://www.w3.org/2000/svg">
<g filter="url(#filter0_i_52_244)">
<rect x="1" y="2" width="63" height="29.7" rx="14.85" fill="url(#paint0_linear_52_244)"/>
</g>
<path d="M36.7972 10.5424C36.9506 10.3121 37.291 10.375 37.3599 10.6463L37.6038 11.6054C37.6318 11.7157 37.7123 11.803 37.8166 11.8362L38.723 12.1249C38.9795 12.2065 39.0276 12.565 38.8026 12.7176L38.0073 13.257C37.9158 13.319 37.8614 13.4261 37.8635 13.5403L37.8815 14.5326C37.8867 14.8134 37.5761 14.9721 37.368 14.7951L36.6326 14.1693C36.548 14.0973 36.4339 14.0763 36.331 14.1136L35.4357 14.4383C35.1824 14.5301 34.9423 14.2697 35.0387 14.0077L35.3796 13.0816C35.4188 12.9751 35.4026 12.8549 35.3369 12.7639L34.7655 11.9722C34.6039 11.7482 34.7661 11.4285 35.0337 11.4436L35.9798 11.497C36.0886 11.5032 36.1927 11.45 36.2551 11.3564L36.7972 10.5424Z" fill="url(#paint1_linear_52_244)"/>
<path d="M29.6493 6.0885C29.6866 6.03238 29.7696 6.04769 29.7864 6.11383L29.8458 6.34759C29.8527 6.37447 29.8723 6.39575 29.8977 6.40384L30.1186 6.47419C30.1811 6.49409 30.1929 6.58148 30.138 6.61867L29.9442 6.75012C29.9219 6.76523 29.9086 6.79135 29.9091 6.81917L29.9135 7.06104C29.9148 7.12946 29.8391 7.16815 29.7884 7.125L29.6091 6.97248C29.5885 6.95494 29.5607 6.9498 29.5356 6.9589L29.3174 7.03803C29.2557 7.06042 29.1972 6.99695 29.2207 6.93309L29.3037 6.70738C29.3133 6.68142 29.3094 6.65213 29.2933 6.62994L29.1541 6.43697C29.1147 6.38239 29.1542 6.30447 29.2194 6.30815L29.45 6.32118C29.4765 6.32267 29.5019 6.30971 29.5171 6.28689L29.6493 6.0885Z" fill="url(#paint2_linear_52_244)"/>
<path d="M45.8714 12.9396C45.9101 12.7743 46.1156 12.7319 46.2112 12.8695L46.5492 13.3558C46.588 13.4118 46.6517 13.4427 46.7176 13.4376L47.2903 13.3932C47.4523 13.3807 47.5543 13.5723 47.4589 13.7101L47.1218 14.1971C47.083 14.2531 47.0746 14.3261 47.0996 14.3902L47.3169 14.9471C47.3783 15.1046 47.2358 15.2655 47.0813 15.213L46.535 15.0276C46.4722 15.0063 46.4033 15.0205 46.3529 15.0652L45.9145 15.4537C45.7904 15.5636 45.6004 15.4714 45.6002 15.3012L45.5997 14.6996C45.5997 14.6304 45.5655 14.5662 45.5093 14.5298L45.0211 14.213C44.883 14.1234 44.908 13.9055 45.0625 13.8528L45.6085 13.6664C45.6713 13.645 45.719 13.591 45.7347 13.5238L45.8714 12.9396Z" fill="url(#paint3_linear_52_244)"/>
<path d="M52.348 9.06315C52.3697 8.97057 52.4848 8.94683 52.5383 9.02389L52.7276 9.2963C52.7494 9.32763 52.7851 9.34495 52.822 9.34209L53.1427 9.31724C53.2334 9.31021 53.2906 9.41755 53.2371 9.49472L53.0483 9.76747C53.0266 9.79884 53.0219 9.83974 53.0359 9.87562L53.1576 10.1875C53.192 10.2757 53.1122 10.3658 53.0257 10.3364L52.7197 10.2326C52.6845 10.2207 52.6459 10.2286 52.6177 10.2537L52.3721 10.4713C52.3027 10.5328 52.1962 10.4812 52.1962 10.3858L52.1959 10.0489C52.1958 10.0102 52.1767 9.97418 52.1452 9.95378L51.8718 9.77638C51.7945 9.72619 51.8085 9.60417 51.895 9.57464L52.2008 9.47024C52.2359 9.45823 52.2627 9.42803 52.2715 9.39039L52.348 9.06315Z" fill="url(#paint4_linear_52_244)"/>
<path d="M42.7118 5.25449C42.8164 5.20753 42.9256 5.31022 42.8924 5.42427L42.7748 5.82741C42.7613 5.87377 42.7716 5.92417 42.8021 5.96066L43.0671 6.27787C43.142 6.36761 43.0826 6.50819 42.9688 6.5103L42.5664 6.51774C42.5202 6.51859 42.4776 6.54444 42.4539 6.58608L42.2478 6.94813C42.1895 7.05055 42.0435 7.03475 42.0064 6.922L41.8754 6.52346C41.8603 6.47762 41.8237 6.4432 41.7785 6.43245L41.3862 6.33899C41.2752 6.31255 41.2444 6.1622 41.3353 6.09041L41.6566 5.83666C41.6936 5.80748 41.7135 5.76035 41.7093 5.71207L41.6729 5.29226C41.6626 5.1735 41.7896 5.09638 41.8828 5.16476L42.2125 5.40648C42.2504 5.43428 42.2993 5.43958 42.3419 5.42049L42.7118 5.25449Z" fill="url(#paint5_linear_52_244)"/>
<g filter="url(#filter1_d_52_244)">
<ellipse cx="15.175" cy="16.85" rx="11.025" ry="11.55" fill="url(#paint6_linear_52_244)"/>
<ellipse cx="15.175" cy="16.85" rx="9.135" ry="9.57" fill="url(#paint7_linear_52_244)"/>
</g>
<defs>
<filter id="filter0_i_52_244" x="1" y="2" width="63" height="35.7" filterUnits="userSpaceOnUse" color-interpolation-filters="sRGB">
<feFlood flood-opacity="0" result="BackgroundImageFix"/>
<feBlend mode="normal" in="SourceGraphic" in2="BackgroundImageFix" result="shape"/>
<feColorMatrix in="SourceAlpha" type="matrix" values="0 0 0 0 0 0 0 0 0 0 0 0 0 0 0 0 0 0 127 0" result="hardAlpha"/>
<feMorphology radius="3" operator="erode" in="SourceAlpha" result="effect1_innerShadow_52_244"/>
<feOffset dy="6"/>
<feGaussianBlur stdDeviation="4"/>
<feComposite in2="hardAlpha" operator="arithmetic" k2="-1" k3="1"/>
<feColorMatrix type="matrix" values="0 0 0 0 0 0 0 0 0 0 0 0 0 0 0 0 0 0 0.25 0"/>
<feBlend mode="normal" in2="shape" result="effect1_innerShadow_52_244"/>
</filter>
<filter id="filter1_d_52_244" x="0.150024" y="0.299999" width="34.05" height="35.1" filterUnits="userSpaceOnUse" color-interpolation-filters="sRGB">
<feFlood flood-opacity="0" result="BackgroundImageFix"/>
<feColorMatrix in="SourceAlpha" type="matrix" values="0 0 0 0 0 0 0 0 0 0 0 0 0 0 0 0 0 0 127 0" result="hardAlpha"/>
<feOffset dx="2" dy="1"/>
<feGaussianBlur stdDeviation="3"/>
<feColorMatrix type="matrix" values="0 0 0 0 0 0 0 0 0 0 0 0 0 0 0 0 0 0 0.25 0"/>
<feBlend mode="normal" in2="BackgroundImageFix" result="effect1_dropShadow_52_244"/>
<feBlend mode="normal" in="SourceGraphic" in2="effect1_dropShadow_52_244" result="shape"/>
</filter>
<linearGradient id="paint0_linear_52_244" x1="33.2875" y1="3.155" x2="32.4233" y2="31.6977" gradientUnits="userSpaceOnUse">
<stop stop-color="#2B4485"/>
<stop offset="1" stop-color="#AFCAFF"/>
</linearGradient>
<linearGradient id="paint1_linear_52_244" x1="37.1854" y1="9.95965" x2="36.1682" y2="15.4683" gradientUnits="userSpaceOnUse">
<stop stop-color="#ADDDFF"/>
<stop offset="1" stop-color="#EDF6FF" stop-opacity="0"/>
</linearGradient>
<linearGradient id="paint2_linear_52_244" x1="29.7439" y1="5.94647" x2="29.4959" y2="7.28908" gradientUnits="userSpaceOnUse">
<stop stop-color="#ADDDFF"/>
<stop offset="1" stop-color="#EDF6FF" stop-opacity="0"/>
</linearGradient>
<linearGradient id="paint3_linear_52_244" x1="45.9693" y1="12.5213" x2="46.655" y2="15.8453" gradientUnits="userSpaceOnUse">
<stop stop-color="#ADDDFF"/>
<stop offset="1" stop-color="#EDF6FF" stop-opacity="0"/>
</linearGradient>
<linearGradient id="paint4_linear_52_244" x1="52.4028" y1="8.82887" x2="52.7869" y2="10.6906" gradientUnits="userSpaceOnUse">
<stop stop-color="#ADDDFF"/>
<stop offset="1" stop-color="#EDF6FF" stop-opacity="0"/>
</linearGradient>
<linearGradient id="paint5_linear_52_244" x1="42.9765" y1="5.13565" x2="41.3791" y2="6.83514" gradientUnits="userSpaceOnUse">
<stop stop-color="#ADDDFF"/>
<stop offset="1" stop-color="#EDF6FF" stop-opacity="0"/>
</linearGradient>
<linearGradient id="paint6_linear_52_244" x1="15.175" y1="5.3" x2="15.175" y2="28.4" gradientUnits="userSpaceOnUse">
<stop stop-color="#D6E9FF"/>
<stop offset="1" stop-color="#CDE4FF"/>
</linearGradient>
<linearGradient id="paint7_linear_52_244" x1="15.175" y1="7.28" x2="15.175" y2="26.42" gradientUnits="userSpaceOnUse">
<stop stop-color="#CEE5FF"/>
<stop offset="0.9999" stop-color="#EDF6FF"/>
<stop offset="1" stop-color="#F1F9FF"/>
</linearGradient>
</defs>
</svg>
